<?xml version="1.0" encoding="UTF-8"?> <svg xmlns="http://www.w3.org/2000/svg" width="94" height="41" viewBox="0 0 94 41" fill="none"> <path d="M69.7443 0.0267334V14.5462C67.3061 12.7245 64.3052 11.653 61.0363 11.653C52.9982 11.653 46.514 18.1626 46.514 26.1724C46.514 29.4407 47.5858 32.4678 49.4346 34.8787C52.0872 38.4149 56.2938 40.6919 61.0631 40.6919H69.7711V34.8787H61.0631C56.267 34.8787 52.3551 30.9676 52.3551 26.1724C52.3551 21.3505 56.267 17.4661 61.0631 17.4661C65.886 17.4661 69.7711 21.3773 69.7711 26.1724V34.8787H75.5854V0.0267334H69.7443Z" fill="white"></path> <path d="M93.0015 34.8788H81.373V40.6919H93.0015V34.8788Z" fill="#004CFF"></path> <path d="M14.5223 34.8788V40.6919C9.77976 40.6919 5.54633 38.4149 2.89374 34.8788C2.81335 34.7716 2.73297 34.6645 2.65259 34.5306C0.964577 32.1732 0 29.28 0 26.1457V0H5.81427V26.1457C5.78747 30.9677 9.69938 34.8788 14.5223 34.8788Z" fill="white"></path> <path d="M37.7793 11.6262V14.5462C35.341 12.7246 32.3401 11.653 29.0713 11.653C21.0331 11.653 14.549 18.1626 14.549 26.1724C14.549 29.4407 15.6208 32.4678 17.4695 34.8788C20.1221 38.4149 24.3288 40.6919 29.0981 40.6919H37.8061V34.8788H29.0981C24.302 34.8788 20.3901 30.9676 20.3901 26.1724C20.3901 21.3505 24.302 17.4661 29.0981 17.4661C33.921 17.4661 37.8061 21.3773 37.8061 26.1724V34.8788H43.6203V11.6262H37.7793Z" fill="white"></path> </svg> 